<mxfile host="Electron" agent="Mozilla/5.0 (Windows NT 10.0; Win64; x64) AppleWebKit/537.36 (KHTML, like Gecko) draw.io/28.1.2 Chrome/138.0.7204.243 Electron/37.4.0 Safari/537.36" version="28.1.2">
  <diagram name="Page-1" id="o8vAWMupdtqvMAPna4tV">
    <mxGraphModel dx="1825" dy="3052" grid="1" gridSize="10" guides="1" tooltips="1" connect="1" arrows="1" fold="1" page="1" pageScale="1" pageWidth="850" pageHeight="1100" math="0" shadow="0">
      <root>
        <mxCell id="0" />
        <mxCell id="1" parent="0" />
        <mxCell id="eC4n2Z889oGJnPj8Iq-R-78" style="edgeStyle=orthogonalEdgeStyle;rounded=0;orthogonalLoop=1;jettySize=auto;html=1;entryX=0.5;entryY=0;entryDx=0;entryDy=0;" edge="1" parent="1" source="eC4n2Z889oGJnPj8Iq-R-3" target="eC4n2Z889oGJnPj8Iq-R-66">
          <mxGeometry relative="1" as="geometry">
            <mxPoint x="375" y="-769.9999999999998" as="targetPoint" />
          </mxGeometry>
        </mxCell>
        <mxCell id="eC4n2Z889oGJnPj8Iq-R-3" value="Output :&lt;div&gt;&lt;div&gt;Masukkan user name&amp;nbsp;&lt;/div&gt;&lt;div&gt;dan password&lt;/div&gt;&lt;/div&gt;" style="shape=parallelogram;perimeter=parallelogramPerimeter;whiteSpace=wrap;html=1;fixedSize=1;" vertex="1" parent="1">
          <mxGeometry x="231.87" y="-1080" width="150" height="50" as="geometry" />
        </mxCell>
        <mxCell id="eC4n2Z889oGJnPj8Iq-R-33" style="edgeStyle=orthogonalEdgeStyle;rounded=0;orthogonalLoop=1;jettySize=auto;html=1;entryX=0.5;entryY=0;entryDx=0;entryDy=0;" edge="1" parent="1" source="eC4n2Z889oGJnPj8Iq-R-4" target="eC4n2Z889oGJnPj8Iq-R-3">
          <mxGeometry relative="1" as="geometry" />
        </mxCell>
        <mxCell id="eC4n2Z889oGJnPj8Iq-R-4" value="input:&lt;div&gt;user dan password&lt;/div&gt;" style="shape=parallelogram;perimeter=parallelogramPerimeter;whiteSpace=wrap;html=1;fixedSize=1;" vertex="1" parent="1">
          <mxGeometry x="231.87" y="-1190" width="150" height="50" as="geometry" />
        </mxCell>
        <mxCell id="eC4n2Z889oGJnPj8Iq-R-38" style="edgeStyle=orthogonalEdgeStyle;rounded=0;orthogonalLoop=1;jettySize=auto;html=1;entryX=0.5;entryY=0;entryDx=0;entryDy=0;" edge="1" parent="1" source="eC4n2Z889oGJnPj8Iq-R-5" target="eC4n2Z889oGJnPj8Iq-R-7">
          <mxGeometry relative="1" as="geometry" />
        </mxCell>
        <mxCell id="eC4n2Z889oGJnPj8Iq-R-49" style="edgeStyle=orthogonalEdgeStyle;rounded=0;orthogonalLoop=1;jettySize=auto;html=1;entryX=0;entryY=0.5;entryDx=0;entryDy=0;" edge="1" parent="1" source="eC4n2Z889oGJnPj8Iq-R-5" target="eC4n2Z889oGJnPj8Iq-R-6">
          <mxGeometry relative="1" as="geometry" />
        </mxCell>
        <mxCell id="eC4n2Z889oGJnPj8Iq-R-5" value="pilih =1" style="rhombus;whiteSpace=wrap;html=1;" vertex="1" parent="1">
          <mxGeometry x="266.88" y="-280" width="80" height="80" as="geometry" />
        </mxCell>
        <mxCell id="eC4n2Z889oGJnPj8Iq-R-51" style="edgeStyle=orthogonalEdgeStyle;rounded=0;orthogonalLoop=1;jettySize=auto;html=1;" edge="1" parent="1" source="eC4n2Z889oGJnPj8Iq-R-6" target="eC4n2Z889oGJnPj8Iq-R-22">
          <mxGeometry relative="1" as="geometry" />
        </mxCell>
        <mxCell id="eC4n2Z889oGJnPj8Iq-R-6" value="output&amp;nbsp;&lt;div&gt;1.tambah kabel&lt;/div&gt;" style="shape=parallelogram;perimeter=parallelogramPerimeter;whiteSpace=wrap;html=1;fixedSize=1;" vertex="1" parent="1">
          <mxGeometry x="460" y="-270" width="200" height="60" as="geometry" />
        </mxCell>
        <mxCell id="eC4n2Z889oGJnPj8Iq-R-39" style="edgeStyle=orthogonalEdgeStyle;rounded=0;orthogonalLoop=1;jettySize=auto;html=1;entryX=0.5;entryY=0;entryDx=0;entryDy=0;" edge="1" parent="1" source="eC4n2Z889oGJnPj8Iq-R-7" target="eC4n2Z889oGJnPj8Iq-R-11">
          <mxGeometry relative="1" as="geometry" />
        </mxCell>
        <mxCell id="eC4n2Z889oGJnPj8Iq-R-41" style="edgeStyle=orthogonalEdgeStyle;rounded=0;orthogonalLoop=1;jettySize=auto;html=1;entryX=0;entryY=0.5;entryDx=0;entryDy=0;" edge="1" parent="1" source="eC4n2Z889oGJnPj8Iq-R-7" target="eC4n2Z889oGJnPj8Iq-R-10">
          <mxGeometry relative="1" as="geometry" />
        </mxCell>
        <mxCell id="eC4n2Z889oGJnPj8Iq-R-7" value="pilih = 2" style="rhombus;whiteSpace=wrap;html=1;" vertex="1" parent="1">
          <mxGeometry x="266.88" y="-120" width="80" height="80" as="geometry" />
        </mxCell>
        <mxCell id="eC4n2Z889oGJnPj8Iq-R-8" value="Selamat datang manager (Role: Manager)" style="shape=parallelogram;perimeter=parallelogramPerimeter;whiteSpace=wrap;html=1;fixedSize=1;" vertex="1" parent="1">
          <mxGeometry x="231.88" y="-370" width="150" height="40" as="geometry" />
        </mxCell>
        <mxCell id="eC4n2Z889oGJnPj8Iq-R-44" style="edgeStyle=orthogonalEdgeStyle;rounded=0;orthogonalLoop=1;jettySize=auto;html=1;" edge="1" parent="1" source="eC4n2Z889oGJnPj8Iq-R-10" target="eC4n2Z889oGJnPj8Iq-R-23">
          <mxGeometry relative="1" as="geometry" />
        </mxCell>
        <mxCell id="eC4n2Z889oGJnPj8Iq-R-10" value="output:&lt;div&gt;2.update kabel&lt;/div&gt;" style="shape=parallelogram;perimeter=parallelogramPerimeter;whiteSpace=wrap;html=1;fixedSize=1;" vertex="1" parent="1">
          <mxGeometry x="440" y="-108.75" width="200" height="57.5" as="geometry" />
        </mxCell>
        <mxCell id="eC4n2Z889oGJnPj8Iq-R-40" style="edgeStyle=orthogonalEdgeStyle;rounded=0;orthogonalLoop=1;jettySize=auto;html=1;entryX=0.5;entryY=0;entryDx=0;entryDy=0;" edge="1" parent="1" source="eC4n2Z889oGJnPj8Iq-R-11" target="eC4n2Z889oGJnPj8Iq-R-13">
          <mxGeometry relative="1" as="geometry" />
        </mxCell>
        <mxCell id="eC4n2Z889oGJnPj8Iq-R-46" style="edgeStyle=orthogonalEdgeStyle;rounded=0;orthogonalLoop=1;jettySize=auto;html=1;" edge="1" parent="1" source="eC4n2Z889oGJnPj8Iq-R-11" target="eC4n2Z889oGJnPj8Iq-R-12">
          <mxGeometry relative="1" as="geometry" />
        </mxCell>
        <mxCell id="eC4n2Z889oGJnPj8Iq-R-11" value="Pilih = 3" style="rhombus;whiteSpace=wrap;html=1;" vertex="1" parent="1">
          <mxGeometry x="266.87" y="40" width="80" height="80" as="geometry" />
        </mxCell>
        <mxCell id="eC4n2Z889oGJnPj8Iq-R-45" style="edgeStyle=orthogonalEdgeStyle;rounded=0;orthogonalLoop=1;jettySize=auto;html=1;entryX=0;entryY=0.5;entryDx=0;entryDy=0;" edge="1" parent="1" source="eC4n2Z889oGJnPj8Iq-R-12" target="eC4n2Z889oGJnPj8Iq-R-24">
          <mxGeometry relative="1" as="geometry" />
        </mxCell>
        <mxCell id="eC4n2Z889oGJnPj8Iq-R-120" style="edgeStyle=orthogonalEdgeStyle;rounded=0;orthogonalLoop=1;jettySize=auto;html=1;exitX=0.75;exitY=1;exitDx=0;exitDy=0;" edge="1" parent="1" source="eC4n2Z889oGJnPj8Iq-R-12">
          <mxGeometry relative="1" as="geometry">
            <mxPoint x="576" y="80" as="targetPoint" />
          </mxGeometry>
        </mxCell>
        <mxCell id="eC4n2Z889oGJnPj8Iq-R-12" value="output:&lt;div&gt;3.Hapus kabel&lt;/div&gt;" style="shape=parallelogram;perimeter=parallelogramPerimeter;whiteSpace=wrap;html=1;fixedSize=1;" vertex="1" parent="1">
          <mxGeometry x="440" y="50" width="200" height="60" as="geometry" />
        </mxCell>
        <mxCell id="eC4n2Z889oGJnPj8Iq-R-47" style="edgeStyle=orthogonalEdgeStyle;rounded=0;orthogonalLoop=1;jettySize=auto;html=1;entryX=0;entryY=0.5;entryDx=0;entryDy=0;" edge="1" parent="1" source="eC4n2Z889oGJnPj8Iq-R-13" target="eC4n2Z889oGJnPj8Iq-R-14">
          <mxGeometry relative="1" as="geometry" />
        </mxCell>
        <mxCell id="eC4n2Z889oGJnPj8Iq-R-13" value="pilih = 4" style="rhombus;whiteSpace=wrap;html=1;" vertex="1" parent="1">
          <mxGeometry x="266.87" y="190" width="80" height="80" as="geometry" />
        </mxCell>
        <mxCell id="eC4n2Z889oGJnPj8Iq-R-108" style="edgeStyle=orthogonalEdgeStyle;rounded=0;orthogonalLoop=1;jettySize=auto;html=1;" edge="1" parent="1" source="eC4n2Z889oGJnPj8Iq-R-14">
          <mxGeometry relative="1" as="geometry">
            <mxPoint x="720" y="230" as="targetPoint" />
          </mxGeometry>
        </mxCell>
        <mxCell id="eC4n2Z889oGJnPj8Iq-R-14" value="output:&lt;div&gt;4.keluar&lt;/div&gt;" style="shape=parallelogram;perimeter=parallelogramPerimeter;whiteSpace=wrap;html=1;fixedSize=1;" vertex="1" parent="1">
          <mxGeometry x="450" y="200" width="200" height="60" as="geometry" />
        </mxCell>
        <mxCell id="eC4n2Z889oGJnPj8Iq-R-32" style="edgeStyle=orthogonalEdgeStyle;rounded=0;orthogonalLoop=1;jettySize=auto;html=1;entryX=0.5;entryY=0;entryDx=0;entryDy=0;" edge="1" parent="1" source="eC4n2Z889oGJnPj8Iq-R-20" target="eC4n2Z889oGJnPj8Iq-R-4">
          <mxGeometry relative="1" as="geometry" />
        </mxCell>
        <mxCell id="eC4n2Z889oGJnPj8Iq-R-20" value="mulai" style="ellipse;whiteSpace=wrap;html=1;aspect=fixed;" vertex="1" parent="1">
          <mxGeometry x="266.87" y="-1340" width="80" height="80" as="geometry" />
        </mxCell>
        <mxCell id="eC4n2Z889oGJnPj8Iq-R-58" style="edgeStyle=orthogonalEdgeStyle;rounded=0;orthogonalLoop=1;jettySize=auto;html=1;entryX=0;entryY=0.5;entryDx=0;entryDy=0;" edge="1" parent="1" source="eC4n2Z889oGJnPj8Iq-R-22" target="eC4n2Z889oGJnPj8Iq-R-27">
          <mxGeometry relative="1" as="geometry" />
        </mxCell>
        <mxCell id="eC4n2Z889oGJnPj8Iq-R-22" value="masukkan nama kabel baru" style="shape=parallelogram;perimeter=parallelogramPerimeter;whiteSpace=wrap;html=1;fixedSize=1;" vertex="1" parent="1">
          <mxGeometry x="720" y="-270" width="200" height="60" as="geometry" />
        </mxCell>
        <mxCell id="eC4n2Z889oGJnPj8Iq-R-107" style="edgeStyle=orthogonalEdgeStyle;rounded=0;orthogonalLoop=1;jettySize=auto;html=1;" edge="1" parent="1" source="eC4n2Z889oGJnPj8Iq-R-23" target="eC4n2Z889oGJnPj8Iq-R-31">
          <mxGeometry relative="1" as="geometry" />
        </mxCell>
        <mxCell id="eC4n2Z889oGJnPj8Iq-R-23" value="masukkan nomor kabel yg mau&amp;nbsp;&lt;div&gt;di update&lt;/div&gt;" style="shape=parallelogram;perimeter=parallelogramPerimeter;whiteSpace=wrap;html=1;fixedSize=1;" vertex="1" parent="1">
          <mxGeometry x="700" y="-111.25" width="200" height="60" as="geometry" />
        </mxCell>
        <mxCell id="eC4n2Z889oGJnPj8Iq-R-62" style="edgeStyle=orthogonalEdgeStyle;rounded=0;orthogonalLoop=1;jettySize=auto;html=1;entryX=0;entryY=0.5;entryDx=0;entryDy=0;" edge="1" parent="1" source="eC4n2Z889oGJnPj8Iq-R-24" target="eC4n2Z889oGJnPj8Iq-R-30">
          <mxGeometry relative="1" as="geometry" />
        </mxCell>
        <mxCell id="eC4n2Z889oGJnPj8Iq-R-24" value="Masukkan nomor kabel yg mau&lt;div&gt;di hapus&lt;/div&gt;" style="shape=parallelogram;perimeter=parallelogramPerimeter;whiteSpace=wrap;html=1;fixedSize=1;" vertex="1" parent="1">
          <mxGeometry x="720" y="50" width="200" height="60" as="geometry" />
        </mxCell>
        <mxCell id="eC4n2Z889oGJnPj8Iq-R-152" style="edgeStyle=orthogonalEdgeStyle;rounded=0;orthogonalLoop=1;jettySize=auto;html=1;entryX=0.5;entryY=0;entryDx=0;entryDy=0;" edge="1" parent="1" source="eC4n2Z889oGJnPj8Iq-R-27" target="eC4n2Z889oGJnPj8Iq-R-31">
          <mxGeometry relative="1" as="geometry" />
        </mxCell>
        <mxCell id="eC4n2Z889oGJnPj8Iq-R-27" value="Kabel berhasil ditambahkan" style="shape=parallelogram;perimeter=parallelogramPerimeter;whiteSpace=wrap;html=1;fixedSize=1;" vertex="1" parent="1">
          <mxGeometry x="1011.88" y="-270" width="200" height="60" as="geometry" />
        </mxCell>
        <mxCell id="eC4n2Z889oGJnPj8Iq-R-155" style="edgeStyle=orthogonalEdgeStyle;rounded=0;orthogonalLoop=1;jettySize=auto;html=1;entryX=0.5;entryY=0;entryDx=0;entryDy=0;" edge="1" parent="1" source="eC4n2Z889oGJnPj8Iq-R-30" target="eC4n2Z889oGJnPj8Iq-R-63">
          <mxGeometry relative="1" as="geometry" />
        </mxCell>
        <mxCell id="eC4n2Z889oGJnPj8Iq-R-30" value="kabel berhasil di hapus/di&amp;nbsp;&lt;div&gt;kurangin&lt;/div&gt;" style="shape=parallelogram;perimeter=parallelogramPerimeter;whiteSpace=wrap;html=1;fixedSize=1;" vertex="1" parent="1">
          <mxGeometry x="1011.88" y="50" width="200" height="60" as="geometry" />
        </mxCell>
        <mxCell id="eC4n2Z889oGJnPj8Iq-R-154" style="edgeStyle=orthogonalEdgeStyle;rounded=0;orthogonalLoop=1;jettySize=auto;html=1;entryX=0.5;entryY=0;entryDx=0;entryDy=0;" edge="1" parent="1" source="eC4n2Z889oGJnPj8Iq-R-31" target="eC4n2Z889oGJnPj8Iq-R-30">
          <mxGeometry relative="1" as="geometry" />
        </mxCell>
        <mxCell id="eC4n2Z889oGJnPj8Iq-R-31" value="kabel berhasil di uptade" style="shape=parallelogram;perimeter=parallelogramPerimeter;whiteSpace=wrap;html=1;fixedSize=1;" vertex="1" parent="1">
          <mxGeometry x="1011.88" y="-111.25" width="200" height="60" as="geometry" />
        </mxCell>
        <mxCell id="eC4n2Z889oGJnPj8Iq-R-37" style="edgeStyle=orthogonalEdgeStyle;rounded=0;orthogonalLoop=1;jettySize=auto;html=1;entryX=0.504;entryY=0.071;entryDx=0;entryDy=0;entryPerimeter=0;" edge="1" parent="1" source="eC4n2Z889oGJnPj8Iq-R-8" target="eC4n2Z889oGJnPj8Iq-R-5">
          <mxGeometry relative="1" as="geometry" />
        </mxCell>
        <mxCell id="eC4n2Z889oGJnPj8Iq-R-63" value="selesai" style="ellipse;whiteSpace=wrap;html=1;aspect=fixed;" vertex="1" parent="1">
          <mxGeometry x="1071.88" y="180" width="80" height="80" as="geometry" />
        </mxCell>
        <mxCell id="eC4n2Z889oGJnPj8Iq-R-84" style="edgeStyle=orthogonalEdgeStyle;rounded=0;orthogonalLoop=1;jettySize=auto;html=1;entryX=0.5;entryY=0;entryDx=0;entryDy=0;" edge="1" parent="1" source="eC4n2Z889oGJnPj8Iq-R-66" target="eC4n2Z889oGJnPj8Iq-R-80">
          <mxGeometry relative="1" as="geometry" />
        </mxCell>
        <mxCell id="eC4n2Z889oGJnPj8Iq-R-104" style="edgeStyle=orthogonalEdgeStyle;rounded=0;orthogonalLoop=1;jettySize=auto;html=1;" edge="1" parent="1" source="eC4n2Z889oGJnPj8Iq-R-66" target="eC4n2Z889oGJnPj8Iq-R-103">
          <mxGeometry relative="1" as="geometry" />
        </mxCell>
        <mxCell id="eC4n2Z889oGJnPj8Iq-R-66" value="apakah usernya manager&amp;nbsp;" style="rhombus;whiteSpace=wrap;html=1;" vertex="1" parent="1">
          <mxGeometry x="243.12" y="-970" width="127.5" height="90" as="geometry" />
        </mxCell>
        <mxCell id="eC4n2Z889oGJnPj8Iq-R-85" style="edgeStyle=orthogonalEdgeStyle;rounded=0;orthogonalLoop=1;jettySize=auto;html=1;entryX=0.5;entryY=0;entryDx=0;entryDy=0;" edge="1" parent="1" source="eC4n2Z889oGJnPj8Iq-R-80" target="eC4n2Z889oGJnPj8Iq-R-8">
          <mxGeometry relative="1" as="geometry" />
        </mxCell>
        <mxCell id="eC4n2Z889oGJnPj8Iq-R-92" style="edgeStyle=orthogonalEdgeStyle;rounded=0;orthogonalLoop=1;jettySize=auto;html=1;" edge="1" parent="1" source="eC4n2Z889oGJnPj8Iq-R-80" target="eC4n2Z889oGJnPj8Iq-R-91">
          <mxGeometry relative="1" as="geometry" />
        </mxCell>
        <mxCell id="eC4n2Z889oGJnPj8Iq-R-80" value="apakah user name atau passwor benar" style="rhombus;whiteSpace=wrap;html=1;" vertex="1" parent="1">
          <mxGeometry x="245" y="-610" width="123.75" height="100" as="geometry" />
        </mxCell>
        <mxCell id="eC4n2Z889oGJnPj8Iq-R-94" style="edgeStyle=orthogonalEdgeStyle;rounded=0;orthogonalLoop=1;jettySize=auto;html=1;entryX=0;entryY=0.5;entryDx=0;entryDy=0;" edge="1" parent="1" source="eC4n2Z889oGJnPj8Iq-R-91" target="eC4n2Z889oGJnPj8Iq-R-93">
          <mxGeometry relative="1" as="geometry" />
        </mxCell>
        <mxCell id="eC4n2Z889oGJnPj8Iq-R-91" value="coba lagi. kesempatan 3 kali" style="shape=parallelogram;perimeter=parallelogramPerimeter;whiteSpace=wrap;html=1;fixedSize=1;" vertex="1" parent="1">
          <mxGeometry x="425" y="-590" width="180" height="60" as="geometry" />
        </mxCell>
        <mxCell id="eC4n2Z889oGJnPj8Iq-R-113" style="edgeStyle=orthogonalEdgeStyle;rounded=0;orthogonalLoop=1;jettySize=auto;html=1;entryX=0;entryY=0.5;entryDx=0;entryDy=0;" edge="1" parent="1" source="eC4n2Z889oGJnPj8Iq-R-93" target="eC4n2Z889oGJnPj8Iq-R-112">
          <mxGeometry relative="1" as="geometry" />
        </mxCell>
        <mxCell id="eC4n2Z889oGJnPj8Iq-R-93" value="login gagal setelah 3 kali. keluar program," style="shape=parallelogram;perimeter=parallelogramPerimeter;whiteSpace=wrap;html=1;fixedSize=1;" vertex="1" parent="1">
          <mxGeometry x="630" y="-590" width="200" height="60" as="geometry" />
        </mxCell>
        <mxCell id="eC4n2Z889oGJnPj8Iq-R-114" style="edgeStyle=orthogonalEdgeStyle;rounded=0;orthogonalLoop=1;jettySize=auto;html=1;" edge="1" parent="1" source="eC4n2Z889oGJnPj8Iq-R-95" target="eC4n2Z889oGJnPj8Iq-R-111">
          <mxGeometry relative="1" as="geometry" />
        </mxCell>
        <mxCell id="eC4n2Z889oGJnPj8Iq-R-133" style="edgeStyle=orthogonalEdgeStyle;rounded=0;orthogonalLoop=1;jettySize=auto;html=1;entryX=0.5;entryY=0;entryDx=0;entryDy=0;" edge="1" parent="1" source="eC4n2Z889oGJnPj8Iq-R-95" target="eC4n2Z889oGJnPj8Iq-R-132">
          <mxGeometry relative="1" as="geometry" />
        </mxCell>
        <mxCell id="eC4n2Z889oGJnPj8Iq-R-95" value="apakah user name atau passwor benar" style="rhombus;whiteSpace=wrap;html=1;" vertex="1" parent="1">
          <mxGeometry x="1100" y="-975" width="123.75" height="100" as="geometry" />
        </mxCell>
        <mxCell id="eC4n2Z889oGJnPj8Iq-R-129" style="edgeStyle=orthogonalEdgeStyle;rounded=0;orthogonalLoop=1;jettySize=auto;html=1;" edge="1" parent="1" source="eC4n2Z889oGJnPj8Iq-R-103" target="eC4n2Z889oGJnPj8Iq-R-128">
          <mxGeometry relative="1" as="geometry" />
        </mxCell>
        <mxCell id="eC4n2Z889oGJnPj8Iq-R-103" value="akan masuk ke user staff" style="shape=parallelogram;perimeter=parallelogramPerimeter;whiteSpace=wrap;html=1;fixedSize=1;" vertex="1" parent="1">
          <mxGeometry x="520" y="-955" width="180" height="60" as="geometry" />
        </mxCell>
        <mxCell id="eC4n2Z889oGJnPj8Iq-R-106" style="edgeStyle=orthogonalEdgeStyle;rounded=0;orthogonalLoop=1;jettySize=auto;html=1;exitX=0.5;exitY=1;exitDx=0;exitDy=0;" edge="1" parent="1" source="eC4n2Z889oGJnPj8Iq-R-93" target="eC4n2Z889oGJnPj8Iq-R-93">
          <mxGeometry relative="1" as="geometry" />
        </mxCell>
        <mxCell id="eC4n2Z889oGJnPj8Iq-R-110" style="edgeStyle=orthogonalEdgeStyle;rounded=0;orthogonalLoop=1;jettySize=auto;html=1;entryX=0;entryY=0.625;entryDx=0;entryDy=0;entryPerimeter=0;" edge="1" parent="1" target="eC4n2Z889oGJnPj8Iq-R-63">
          <mxGeometry relative="1" as="geometry">
            <mxPoint x="900" y="230" as="sourcePoint" />
          </mxGeometry>
        </mxCell>
        <mxCell id="eC4n2Z889oGJnPj8Iq-R-116" style="edgeStyle=orthogonalEdgeStyle;rounded=0;orthogonalLoop=1;jettySize=auto;html=1;entryX=0;entryY=0.5;entryDx=0;entryDy=0;" edge="1" parent="1" source="eC4n2Z889oGJnPj8Iq-R-111" target="eC4n2Z889oGJnPj8Iq-R-115">
          <mxGeometry relative="1" as="geometry" />
        </mxCell>
        <mxCell id="eC4n2Z889oGJnPj8Iq-R-111" value="coba lagi. kesempatan 3 kali" style="shape=parallelogram;perimeter=parallelogramPerimeter;whiteSpace=wrap;html=1;fixedSize=1;" vertex="1" parent="1">
          <mxGeometry x="1370" y="-955" width="180" height="60" as="geometry" />
        </mxCell>
        <mxCell id="eC4n2Z889oGJnPj8Iq-R-112" value="selesai" style="ellipse;whiteSpace=wrap;html=1;aspect=fixed;" vertex="1" parent="1">
          <mxGeometry x="890" y="-600" width="80" height="80" as="geometry" />
        </mxCell>
        <mxCell id="eC4n2Z889oGJnPj8Iq-R-118" style="edgeStyle=orthogonalEdgeStyle;rounded=0;orthogonalLoop=1;jettySize=auto;html=1;entryX=0;entryY=0.5;entryDx=0;entryDy=0;" edge="1" parent="1" source="eC4n2Z889oGJnPj8Iq-R-115" target="eC4n2Z889oGJnPj8Iq-R-117">
          <mxGeometry relative="1" as="geometry" />
        </mxCell>
        <mxCell id="eC4n2Z889oGJnPj8Iq-R-115" value="login gagal setelah 3 kali. keluar program," style="shape=parallelogram;perimeter=parallelogramPerimeter;whiteSpace=wrap;html=1;fixedSize=1;" vertex="1" parent="1">
          <mxGeometry x="1720" y="-955" width="200" height="60" as="geometry" />
        </mxCell>
        <mxCell id="eC4n2Z889oGJnPj8Iq-R-117" value="selesai" style="ellipse;whiteSpace=wrap;html=1;aspect=fixed;" vertex="1" parent="1">
          <mxGeometry x="2040" y="-965" width="80" height="80" as="geometry" />
        </mxCell>
        <mxCell id="eC4n2Z889oGJnPj8Iq-R-130" style="edgeStyle=orthogonalEdgeStyle;rounded=0;orthogonalLoop=1;jettySize=auto;html=1;entryX=0;entryY=0.5;entryDx=0;entryDy=0;" edge="1" parent="1" source="eC4n2Z889oGJnPj8Iq-R-128" target="eC4n2Z889oGJnPj8Iq-R-95">
          <mxGeometry relative="1" as="geometry" />
        </mxCell>
        <mxCell id="eC4n2Z889oGJnPj8Iq-R-128" value="Output :&lt;div&gt;&lt;div&gt;Masukkan user name&amp;nbsp;&lt;/div&gt;&lt;div&gt;dan password&lt;/div&gt;&lt;/div&gt;" style="shape=parallelogram;perimeter=parallelogramPerimeter;whiteSpace=wrap;html=1;fixedSize=1;" vertex="1" parent="1">
          <mxGeometry x="820" y="-950" width="150" height="50" as="geometry" />
        </mxCell>
        <mxCell id="eC4n2Z889oGJnPj8Iq-R-131" style="edgeStyle=orthogonalEdgeStyle;rounded=0;orthogonalLoop=1;jettySize=auto;html=1;exitX=0.5;exitY=1;exitDx=0;exitDy=0;" edge="1" parent="1" source="eC4n2Z889oGJnPj8Iq-R-128" target="eC4n2Z889oGJnPj8Iq-R-128">
          <mxGeometry relative="1" as="geometry" />
        </mxCell>
        <mxCell id="eC4n2Z889oGJnPj8Iq-R-136" style="edgeStyle=orthogonalEdgeStyle;rounded=0;orthogonalLoop=1;jettySize=auto;html=1;entryX=0.5;entryY=0;entryDx=0;entryDy=0;" edge="1" parent="1" source="eC4n2Z889oGJnPj8Iq-R-132" target="eC4n2Z889oGJnPj8Iq-R-134">
          <mxGeometry relative="1" as="geometry" />
        </mxCell>
        <mxCell id="eC4n2Z889oGJnPj8Iq-R-132" value="Selamat datang staff (Role: Staff)" style="shape=parallelogram;perimeter=parallelogramPerimeter;whiteSpace=wrap;html=1;fixedSize=1;" vertex="1" parent="1">
          <mxGeometry x="1089.53" y="-820" width="144.69" height="40" as="geometry" />
        </mxCell>
        <mxCell id="eC4n2Z889oGJnPj8Iq-R-137" style="edgeStyle=orthogonalEdgeStyle;rounded=0;orthogonalLoop=1;jettySize=auto;html=1;entryX=0.5;entryY=0;entryDx=0;entryDy=0;" edge="1" parent="1" source="eC4n2Z889oGJnPj8Iq-R-134" target="eC4n2Z889oGJnPj8Iq-R-135">
          <mxGeometry relative="1" as="geometry" />
        </mxCell>
        <mxCell id="eC4n2Z889oGJnPj8Iq-R-140" style="edgeStyle=orthogonalEdgeStyle;rounded=0;orthogonalLoop=1;jettySize=auto;html=1;entryX=0;entryY=0.5;entryDx=0;entryDy=0;" edge="1" parent="1" source="eC4n2Z889oGJnPj8Iq-R-134" target="eC4n2Z889oGJnPj8Iq-R-138">
          <mxGeometry relative="1" as="geometry" />
        </mxCell>
        <mxCell id="eC4n2Z889oGJnPj8Iq-R-134" value="pilih =1" style="rhombus;whiteSpace=wrap;html=1;" vertex="1" parent="1">
          <mxGeometry x="1121.87" y="-710" width="80" height="80" as="geometry" />
        </mxCell>
        <mxCell id="eC4n2Z889oGJnPj8Iq-R-151" style="edgeStyle=orthogonalEdgeStyle;rounded=0;orthogonalLoop=1;jettySize=auto;html=1;entryX=0;entryY=0.5;entryDx=0;entryDy=0;" edge="1" parent="1" source="eC4n2Z889oGJnPj8Iq-R-135" target="eC4n2Z889oGJnPj8Iq-R-142">
          <mxGeometry relative="1" as="geometry" />
        </mxCell>
        <mxCell id="eC4n2Z889oGJnPj8Iq-R-135" value="pilih = 2" style="rhombus;whiteSpace=wrap;html=1;" vertex="1" parent="1">
          <mxGeometry x="1121.8700000000001" y="-570" width="80" height="80" as="geometry" />
        </mxCell>
        <mxCell id="eC4n2Z889oGJnPj8Iq-R-141" style="edgeStyle=orthogonalEdgeStyle;rounded=0;orthogonalLoop=1;jettySize=auto;html=1;" edge="1" parent="1" source="eC4n2Z889oGJnPj8Iq-R-138" target="eC4n2Z889oGJnPj8Iq-R-139">
          <mxGeometry relative="1" as="geometry" />
        </mxCell>
        <mxCell id="eC4n2Z889oGJnPj8Iq-R-138" value="1.Lihat Kabel" style="shape=parallelogram;perimeter=parallelogramPerimeter;whiteSpace=wrap;html=1;fixedSize=1;" vertex="1" parent="1">
          <mxGeometry x="1360" y="-700" width="200" height="60" as="geometry" />
        </mxCell>
        <mxCell id="eC4n2Z889oGJnPj8Iq-R-150" style="edgeStyle=orthogonalEdgeStyle;rounded=0;orthogonalLoop=1;jettySize=auto;html=1;entryX=0.5;entryY=0;entryDx=0;entryDy=0;" edge="1" parent="1" source="eC4n2Z889oGJnPj8Iq-R-139" target="eC4n2Z889oGJnPj8Iq-R-143">
          <mxGeometry relative="1" as="geometry" />
        </mxCell>
        <mxCell id="eC4n2Z889oGJnPj8Iq-R-139" value="Kabel Berhasil Di Lihat" style="shape=parallelogram;perimeter=parallelogramPerimeter;whiteSpace=wrap;html=1;fixedSize=1;" vertex="1" parent="1">
          <mxGeometry x="1710" y="-700" width="200" height="60" as="geometry" />
        </mxCell>
        <mxCell id="eC4n2Z889oGJnPj8Iq-R-146" style="edgeStyle=orthogonalEdgeStyle;rounded=0;orthogonalLoop=1;jettySize=auto;html=1;entryX=0;entryY=0.5;entryDx=0;entryDy=0;" edge="1" parent="1" source="eC4n2Z889oGJnPj8Iq-R-142" target="eC4n2Z889oGJnPj8Iq-R-143">
          <mxGeometry relative="1" as="geometry" />
        </mxCell>
        <mxCell id="eC4n2Z889oGJnPj8Iq-R-142" value="2.Keluar" style="shape=parallelogram;perimeter=parallelogramPerimeter;whiteSpace=wrap;html=1;fixedSize=1;" vertex="1" parent="1">
          <mxGeometry x="1340" y="-560" width="200" height="60" as="geometry" />
        </mxCell>
        <mxCell id="eC4n2Z889oGJnPj8Iq-R-148" style="edgeStyle=orthogonalEdgeStyle;rounded=0;orthogonalLoop=1;jettySize=auto;html=1;entryX=0;entryY=0.5;entryDx=0;entryDy=0;" edge="1" parent="1" source="eC4n2Z889oGJnPj8Iq-R-143" target="eC4n2Z889oGJnPj8Iq-R-147">
          <mxGeometry relative="1" as="geometry" />
        </mxCell>
        <mxCell id="eC4n2Z889oGJnPj8Iq-R-143" value="Program berhenti" style="shape=parallelogram;perimeter=parallelogramPerimeter;whiteSpace=wrap;html=1;fixedSize=1;" vertex="1" parent="1">
          <mxGeometry x="1710" y="-560" width="200" height="60" as="geometry" />
        </mxCell>
        <mxCell id="eC4n2Z889oGJnPj8Iq-R-145" value="Program berhenti" style="shape=parallelogram;perimeter=parallelogramPerimeter;whiteSpace=wrap;html=1;fixedSize=1;" vertex="1" parent="1">
          <mxGeometry x="710" y="200" width="200" height="60" as="geometry" />
        </mxCell>
        <mxCell id="eC4n2Z889oGJnPj8Iq-R-147" value="selesai" style="ellipse;whiteSpace=wrap;html=1;aspect=fixed;" vertex="1" parent="1">
          <mxGeometry x="2045" y="-570" width="80" height="80" as="geometry" />
        </mxCell>
        <mxCell id="eC4n2Z889oGJnPj8Iq-R-156" value="Ya" style="text;html=1;align=center;verticalAlign=middle;whiteSpace=wrap;rounded=0;" vertex="1" parent="1">
          <mxGeometry x="266.87" y="-885" width="60" height="30" as="geometry" />
        </mxCell>
        <mxCell id="eC4n2Z889oGJnPj8Iq-R-157" value="Tidak" style="text;html=1;align=center;verticalAlign=middle;whiteSpace=wrap;rounded=0;" vertex="1" parent="1">
          <mxGeometry x="350" y="-950" width="60" height="30" as="geometry" />
        </mxCell>
        <mxCell id="eC4n2Z889oGJnPj8Iq-R-158" value="Tidak" style="text;html=1;align=center;verticalAlign=middle;whiteSpace=wrap;rounded=0;" vertex="1" parent="1">
          <mxGeometry x="350" y="-590" width="60" height="30" as="geometry" />
        </mxCell>
        <mxCell id="eC4n2Z889oGJnPj8Iq-R-159" value="Ya" style="text;html=1;align=center;verticalAlign=middle;whiteSpace=wrap;rounded=0;" vertex="1" parent="1">
          <mxGeometry x="1121.87" y="-875" width="60" height="30" as="geometry" />
        </mxCell>
        <mxCell id="eC4n2Z889oGJnPj8Iq-R-160" value="Ya" style="text;html=1;align=center;verticalAlign=middle;whiteSpace=wrap;rounded=0;" vertex="1" parent="1">
          <mxGeometry x="266.87" y="-510" width="60" height="30" as="geometry" />
        </mxCell>
        <mxCell id="eC4n2Z889oGJnPj8Iq-R-161" value="Tidak" style="text;html=1;align=center;verticalAlign=middle;whiteSpace=wrap;rounded=0;" vertex="1" parent="1">
          <mxGeometry x="1211.88" y="-955" width="60" height="30" as="geometry" />
        </mxCell>
      </root>
    </mxGraphModel>
  </diagram>
</mxfile>
